<svg id="afe9abef-9647-421c-a488-15f67ba926af" data-name="Livello 1" xmlns="http://www.w3.org/2000/svg" viewBox="0 0 192.94 193.08"><defs><style>.eb9d0171-0e3f-40b5-85b5-97a3112b4be1{fill:#5751ff;}.fc638b40-b019-4f93-83ca-134d6b489d61{fill:#a2faa6;}.f680fd16-2091-4dcf-b5a3-858fb2691600{fill:none;stroke:#fff;stroke-width:0.5px;}</style></defs><g id="e715ef9a-7275-458a-837c-488ae596c73b" data-name="Centro"><path id="bc7ce906-ffd5-4100-be7e-31210808c0fd" data-name="Zona giù - destra" class="eb9d0171-0e3f-40b5-85b5-97a3112b4be1" d="M232.13,226.07c-5.78,4.32-13.12,4.12-17.83,3.48a74.18,74.18,0,0,0,7.22-9.22c7.35-11.07,5.93-15.44,12.09-24.69,2.46-3.7,7.66-11.32,17.39-15.92a39.21,39.21,0,0,1,16-3.65,31.78,31.78,0,0,0-14.43,8.87c-4,4.4-4.47,7.81-10.35,22.44-.92,2.28-1.74,4.27-2.48,6h38.74V169.81H262c-12.1,2.69-18.71,7.92-22,11.13-7,6.78-18.13,22.93-20.61,32.09-1.27,4.66-2.55,6.18-5.13,9.22-2.77,3.26-4,3.1-4.35,3-1.93-.38-2.48-4-3.48-7.74a67.84,67.84,0,0,0-7.56-17c-2.17-3.36-6-7.63-13.05-11.21a47,47,0,0,1,16.87,37.47,42.64,42.64,0,0,0-7.39-10.76v36.16h43.83V214.89C235.63,222.8,234.09,224.61,232.13,226.07Z" transform="translate(-121.1 -95.59)"/><path id="e63e707c-22ff-4913-bcd4-7df8584fef6a" data-name="Zona sopra" class="fc638b40-b019-4f93-83ca-134d6b489d61" d="M199.43,181c4.63,2.64,10.25,8.2,13.57,21.3a53.74,53.74,0,0,1,14.26-21.13,52.42,52.42,0,0,1,21-11.39h-9.15V130.94H195.26v38.87h-18.4a37.14,37.14,0,0,0,5.27,4.09C189.29,178.47,194,178,199.43,181Zm14.1-20.87a9.43,9.43,0,1,1-9.43,9.43A9.43,9.43,0,0,1,213.53,160.16Z" transform="translate(-121.1 -95.59)"/><path id="ab8a07b4-db24-48aa-98d0-98b348993005" data-name="Zona sinistra" class="fc638b40-b019-4f93-83ca-134d6b489d61" d="M167.13,181.36a33.14,33.14,0,0,1,4.22-17.9,18.88,18.88,0,0,0-6.88,6.35h-7.82v43.57h35.76c-5.53-4.72-8.93-4.43-14.28-9.31C176.77,202.83,167.9,194.48,167.13,181.36Z" transform="translate(-121.1 -95.59)"/></g><g id="fba21bc6-c2f7-4200-b64d-1981a53a2135" data-name="Arco"><path class="eb9d0171-0e3f-40b5-85b5-97a3112b4be1" d="M266.05,264.91l-.07-.13,0-.07a.67.67,0,0,0-.06-.12l-.06-.11-.08-.12-.15-.22-.1-.14-.12-.13-.11-.12-.13-.13-.14-.11-.13-.1h0a1.49,1.49,0,0,0-.71-.26c-.93-.07-1.57.88-2.66,2.42l-.4.57c-.19.26-.39.54-.61.82-.05.08-.11.15-.17.23-.24.32-.5.64-.79,1a22.75,22.75,0,0,1-4.69,4.44,15.48,15.48,0,0,1-7.74,2.43h-.17a13.5,13.5,0,0,0-4.61-2.79c-2-.74-2.94-.55-5.64-.9a46,46,0,0,1-11.38-3.24c-3.69-1.41-3.43-1.69-9.94-4.46a62.9,62.9,0,0,0-7.22-2.81c-3.17-.9-6.61-1.87-10.95-1.21a22.17,22.17,0,0,0-9.13,3.76,26.63,26.63,0,0,0-6.56,6.14,85.56,85.56,0,0,1-13.41-146.66l-.07,0a8.37,8.37,0,0,1-1.57-2.53c-2.38-6.08,3.6-12.81,4.11-13.38a97.09,97.09,0,0,0,47.63,181.69c3.07,0,6.11-.15,9.11-.43h0A62,62,0,0,0,240.83,287c4.38-.9,8.51-1.74,13.22-4.52a30,30,0,0,0,4.25-3.12l.14-.13c.25-.22.5-.45.76-.7.08-.08.17-.15.25-.24l.75-.75.21-.21c.32-.34.64-.68.95-1.05a2.11,2.11,0,0,0,.19-.23c.25-.29.5-.59.75-.91l.3-.39c.22-.29.43-.59.65-.9l.28-.4c.29-.44.58-.89.86-1.36C266.9,267.85,266.5,265.9,266.05,264.91Z" transform="translate(-121.1 -95.59)"/><path class="fc638b40-b019-4f93-83ca-134d6b489d61" d="M217,95.59c-3.07,0-6.11.15-9.11.43h0a62.61,62.61,0,0,0-13.55,1.25c-4.38.9-8.51,1.75-13.22,4.53a29.19,29.19,0,0,0-4.25,3.12l-.14.12c-.25.22-.5.46-.76.7l-.25.24q-.37.36-.75.75l-.21.22c-.32.33-.64.68-.95,1l-.19.23-.75.91-.3.4c-.22.29-.43.58-.65.89l-.28.4c-.29.44-.58.89-.86,1.37-2.51,4.24-2.11,6.19-1.66,7.17l.07.13a.25.25,0,0,0,0,.07l.06.12.06.11.08.13c.05.07.09.14.15.21l.1.14.12.14.11.11a.8.8,0,0,0,.13.13l.14.11a.69.69,0,0,0,.13.11h0a1.59,1.59,0,0,0,.71.25c.93.08,1.57-.87,2.66-2.42l.4-.57.61-.82.17-.22c.24-.32.5-.65.79-1a23,23,0,0,1,4.69-4.43,15.46,15.46,0,0,1,7.74-2.44h.17a13.33,13.33,0,0,0,4.61,2.79c2,.74,2.94.56,5.64.9a45.83,45.83,0,0,1,11.39,3.25c3.68,1.4,3.42,1.68,9.93,4.45a65.5,65.5,0,0,0,7.22,2.82c3.17.89,6.61,1.86,10.95,1.2a21.9,21.9,0,0,0,9.13-3.76,26.45,26.45,0,0,0,6.56-6.14,85.56,85.56,0,0,1,13.41,146.66l.07,0a8.1,8.1,0,0,1,1.57,2.53c2.38,6.08-3.6,12.82-4.11,13.38A97.09,97.09,0,0,0,217,95.59Z" transform="translate(-121.1 -95.59)"/><path id="bbeaa3a8-c4d7-4a28-8f5a-258bef31b85e" data-name="Pollice rosso" class="f680fd16-2091-4dcf-b5a3-858fb2691600" d="M246.89,274.69a7.72,7.72,0,0,1,2.22,3.7,3.46,3.46,0,0,1,0,2.68c-.73,1.13-2.48,1.19-3.32,1.21-11.36.26-17.31-1.13-17.31-1.13-2.72-.64-6.36-1.6-10.61-3" transform="translate(-121.1 -95.59)"/><path id="aa233261-d876-47d3-957f-8cc44d8ea9cc" data-name="Pollice su" class="f680fd16-2091-4dcf-b5a3-858fb2691600" d="M217.57,106.48c-4.25-1.44-7.89-2.4-10.61-3,0,0-6-1.39-17.3-1.13-.85,0-2.6.08-3.32,1.21a3.51,3.51,0,0,0-.05,2.68,7.28,7.28,0,0,0,1.75,3.21" transform="translate(-121.1 -95.59)"/></g></svg>